# 3ds Max Wavefront OBJ Exporter v0.97b - (c)2007 guruware
# File Created: 25.06.2019 15:48:43

#
# object Tube001
#

v  -0.0000 2.7500 -0.3000
v  -0.0000 2.7500 0.3000
v  0.8498 2.6154 0.3000
v  0.8498 2.6154 -0.3000
v  -0.0000 2.5000 0.3000
v  0.7725 2.3776 0.3000
v  -0.0000 2.5000 -0.3000
v  0.7725 2.3776 -0.3000
v  1.6164 2.2248 0.3000
v  1.6164 2.2248 -0.3000
v  1.4695 2.0225 0.3000
v  1.4695 2.0225 -0.3000
v  2.2248 1.6164 0.3000
v  2.2248 1.6164 -0.3000
v  2.0225 1.4695 0.3000
v  2.0225 1.4695 -0.3000
v  2.6154 0.8498 0.3000
v  2.6154 0.8498 -0.3000
v  2.3776 0.7725 0.3000
v  2.3776 0.7725 -0.3000
v  2.7500 -0.0000 0.3000
v  2.7500 0.0000 -0.3000
v  2.5000 -0.0000 0.3000
v  2.5000 0.0000 -0.3000
v  2.6154 -0.8498 0.3000
v  2.6154 -0.8498 -0.3000
v  2.3776 -0.7725 0.3000
v  2.3776 -0.7725 -0.3000
v  2.2248 -1.6164 0.3000
v  2.2248 -1.6164 -0.3000
v  2.0225 -1.4695 0.3000
v  2.0225 -1.4695 -0.3000
v  1.6164 -2.2248 0.3000
v  1.6164 -2.2248 -0.3000
v  1.4695 -2.0225 0.3000
v  1.4695 -2.0225 -0.3000
v  0.8498 -2.6154 0.3000
v  0.8498 -2.6154 -0.3000
v  0.7725 -2.3776 0.3000
v  0.7725 -2.3776 -0.3000
v  -0.0000 -2.7500 0.3000
v  -0.0000 -2.7500 -0.3000
v  -0.0000 -2.5000 0.3000
v  -0.0000 -2.5000 -0.3000
v  -0.8498 -2.6154 0.3000
v  -0.8498 -2.6154 -0.3000
v  -0.7725 -2.3776 0.3000
v  -0.7725 -2.3776 -0.3000
v  -1.6164 -2.2248 0.3000
v  -1.6164 -2.2248 -0.3000
v  -1.4695 -2.0225 0.3000
v  -1.4695 -2.0225 -0.3000
v  -2.2248 -1.6164 0.3000
v  -2.2248 -1.6164 -0.3000
v  -2.0225 -1.4695 0.3000
v  -2.0225 -1.4695 -0.3000
v  -2.6154 -0.8498 0.3000
v  -2.6154 -0.8498 -0.3000
v  -2.3776 -0.7725 0.3000
v  -2.3776 -0.7725 -0.3000
v  -2.7500 0.0000 0.3000
v  -2.7500 0.0000 -0.3000
v  -2.5000 0.0000 0.3000
v  -2.5000 0.0000 -0.3000
v  -2.6154 0.8498 0.3000
v  -2.6154 0.8498 -0.3000
v  -2.3776 0.7725 0.3000
v  -2.3776 0.7725 -0.3000
v  -2.2248 1.6164 0.3000
v  -2.2248 1.6164 -0.3000
v  -2.0225 1.4695 0.3000
v  -2.0225 1.4695 -0.3000
v  -1.6164 2.2248 0.3000
v  -1.6164 2.2248 -0.3000
v  -1.4695 2.0225 0.3000
v  -1.4695 2.0225 -0.3000
v  -0.8498 2.6154 0.3000
v  -0.8498 2.6154 -0.3000
v  -0.7725 2.3776 0.3000
v  -0.7725 2.3776 -0.3000
v  0.3520 -0.0373 -0.3000
v  0.3520 -0.0373 0.3000
v  0.3519 -0.6182 -0.3000
v  0.3519 -0.6182 0.3000
v  -0.3519 -0.6182 -0.3000
v  -0.3519 -0.6182 0.3000
v  -0.3520 -0.0373 -0.3000
v  -0.3520 -0.0373 0.3000
# 88 vertices

vn 0.0000 1.0000 0.0000
vn 0.3090 0.9511 0.0000
vn 0.0000 -0.0000 1.0000
vn -0.0000 -0.0000 1.0000
vn -0.0000 -1.0000 -0.0000
vn -0.3090 -0.9511 -0.0000
vn 0.0000 0.0000 -1.0000
vn 0.5878 0.8090 0.0000
vn -0.5878 -0.8090 -0.0000
vn 0.8090 0.5878 0.0000
vn -0.8090 -0.5878 -0.0000
vn -0.0000 -0.0000 -1.0000
vn 0.9511 0.3090 0.0000
vn -0.9511 -0.3090 -0.0000
vn -0.0000 0.0000 -1.0000
vn 1.0000 -0.0000 0.0000
vn -0.0000 0.0000 1.0000
vn 0.0000 0.0000 1.0000
vn -1.0000 -0.0000 -0.0000
vn -1.0000 0.0000 -0.0000
vn 0.9511 -0.3090 0.0000
vn -0.9877 0.1564 -0.0000
vn 0.8090 -0.5878 0.0000
vn 0.5878 -0.8090 0.0000
vn -0.7071 0.7071 -0.0000
vn -0.5878 0.8090 -0.0000
vn 0.3090 -0.9511 0.0000
vn -0.3090 0.9511 -0.0000
vn 0.0000 -0.0000 -1.0000
vn -0.0000 -1.0000 0.0000
vn 0.0000 1.0000 -0.0000
vn -0.3090 -0.9511 0.0000
vn 0.3090 0.9511 -0.0000
vn -0.5878 -0.8090 0.0000
vn 0.5878 0.8090 -0.0000
vn -0.8090 -0.5878 0.0000
vn 0.7071 0.7071 -0.0000
vn -0.9511 -0.3090 0.0000
vn -1.0000 0.0000 0.0000
vn 0.9877 0.1564 -0.0000
vn 1.0000 -0.0000 -0.0000
vn -0.9511 0.3090 0.0000
vn 0.9511 -0.3090 -0.0000
vn -0.8090 0.5878 0.0000
vn 0.8090 -0.5878 -0.0000
vn -0.5878 0.8090 0.0000
vn 0.5878 -0.8090 -0.0000
vn -0.3090 0.9511 0.0000
vn 0.3090 -0.9511 -0.0000
vn 0.3412 0.9400 0.0000
vn -0.4540 -0.8910 0.0000
vn -0.4540 -0.8910 -0.0000
vn 0.4540 -0.8910 0.0000
vn 0.4540 -0.8910 -0.0000
vn -0.3412 0.9400 0.0000
vn 0.0000 -1.0000 -0.0000
# 56 vertex normals

vt 0.0000 0.0000 0.0000
vt 0.2500 0.0000 0.0000
vt 0.2500 0.0500 0.0000
vt 0.0000 0.0500 0.0000
vt 0.5000 0.0000 0.0000
vt 0.5000 0.0500 0.0000
vt 0.7500 0.0000 0.0000
vt 0.7500 0.0500 0.0000
vt 1.0000 0.0000 0.0000
vt 1.0000 0.0500 0.0000
vt 0.2500 0.1000 0.0000
vt 0.0000 0.1000 0.0000
vt 0.5000 0.1000 0.0000
vt 0.7500 0.1000 0.0000
vt 1.0000 0.1000 0.0000
vt 0.2500 0.1500 0.0000
vt 0.0000 0.1500 0.0000
vt 0.5000 0.1500 0.0000
vt 0.7500 0.1500 0.0000
vt 1.0000 0.1500 0.0000
vt 0.2500 0.2000 0.0000
vt 0.0000 0.2000 0.0000
vt 0.5000 0.2000 0.0000
vt 0.7500 0.2000 0.0000
vt 1.0000 0.2000 0.0000
vt 0.2500 0.2500 0.0000
vt 0.0000 0.2500 0.0000
vt 0.5000 0.2500 0.0000
vt 0.7500 0.2500 0.0000
vt 1.0000 0.2500 0.0000
vt 0.2500 0.3000 0.0000
vt 0.0000 0.3000 0.0000
vt 0.5000 0.3000 0.0000
vt 0.7500 0.3000 0.0000
vt 1.0000 0.3000 0.0000
vt 0.2500 0.3500 0.0000
vt 0.0000 0.3500 0.0000
vt 0.5000 0.3500 0.0000
vt 1.0000 0.3500 0.0000
vt 0.7500 0.3500 0.0000
vt 0.2500 0.4000 0.0000
vt 0.0000 0.4000 0.0000
vt 0.5000 0.4000 0.0000
vt 0.7500 0.4000 0.0000
vt 1.0000 0.4000 0.0000
vt 0.2500 0.4500 0.0000
vt 0.0000 0.4500 0.0000
vt 0.5000 0.4500 0.0000
vt 0.7500 0.4500 0.0000
vt 1.0000 0.4500 0.0000
vt 0.2500 0.5000 0.0000
vt 0.0000 0.5000 0.0000
vt 0.5000 0.5000 0.0000
vt 0.7500 0.5000 0.0000
vt 1.0000 0.5000 0.0000
vt 0.2500 0.5500 0.0000
vt 0.0000 0.5500 0.0000
vt 0.5000 0.5500 0.0000
vt 0.7500 0.5500 0.0000
vt 1.0000 0.5500 0.0000
vt 0.2500 0.6000 0.0000
vt 0.0000 0.6000 0.0000
vt 0.5000 0.6000 0.0000
vt 0.7500 0.6000 0.0000
vt 1.0000 0.6000 0.0000
vt 0.2500 0.6500 0.0000
vt 0.0000 0.6500 0.0000
vt 0.5000 0.6500 0.0000
vt 0.7500 0.6500 0.0000
vt 1.0000 0.6500 0.0000
vt 0.2500 0.7000 0.0000
vt 0.0000 0.7000 0.0000
vt 0.5000 0.7000 0.0000
vt 1.0000 0.7000 0.0000
vt 0.7500 0.7000 0.0000
vt 0.2500 0.7500 0.0000
vt 0.0000 0.7500 0.0000
vt 0.5000 0.7500 0.0000
vt 0.7500 0.7500 0.0000
vt 1.0000 0.7500 0.0000
vt 0.2500 0.8000 0.0000
vt 0.0000 0.8000 0.0000
vt 0.5000 0.8000 0.0000
vt 0.7500 0.8000 0.0000
vt 1.0000 0.8000 0.0000
vt 0.2500 0.8500 0.0000
vt 0.0000 0.8500 0.0000
vt 0.5000 0.8500 0.0000
vt 0.7500 0.8500 0.0000
vt 1.0000 0.8500 0.0000
vt 0.2500 0.9000 0.0000
vt 0.0000 0.9000 0.0000
vt 0.5000 0.9000 0.0000
vt 0.7500 0.9000 0.0000
vt 1.0000 0.9000 0.0000
vt 0.2500 0.9500 0.0000
vt 0.0000 0.9500 0.0000
vt 0.5000 0.9500 0.0000
vt 0.7500 0.9500 0.0000
vt 1.0000 0.9500 0.0000
vt 0.2500 1.0000 0.0000
vt 0.0000 1.0000 0.0000
vt 0.5000 1.0000 0.0000
vt 0.7500 1.0000 0.0000
vt 1.0000 1.0000 0.0000
# 105 texture coords

o Tube001
g Tube001
f 1/1/1 2/2/1 3/3/2 
f 3/3/2 4/4/2 1/1/1 
f 2/2/3 5/5/3 6/6/4 
f 6/6/4 3/3/4 2/2/3 
f 5/5/5 7/7/5 8/8/6 
f 8/8/6 6/6/6 5/5/5 
f 7/7/7 1/9/7 4/10/7 
f 4/10/7 8/8/7 7/7/7 
f 4/4/2 3/3/2 9/11/8 
f 9/11/8 10/12/8 4/4/2 
f 3/3/4 6/6/4 11/13/3 
f 11/13/3 9/11/3 3/3/4 
f 6/6/6 8/8/6 12/14/9 
f 12/14/9 11/13/9 6/6/6 
f 8/8/7 4/10/7 10/15/7 
f 10/15/7 12/14/7 8/8/7 
f 10/12/8 9/11/8 13/16/10 
f 13/16/10 14/17/10 10/12/8 
f 9/11/3 11/13/3 15/18/4 
f 15/18/4 13/16/4 9/11/3 
f 11/13/9 12/14/9 16/19/11 
f 16/19/11 15/18/11 11/13/9 
f 12/14/7 10/15/7 14/20/12 
f 14/20/12 16/19/12 12/14/7 
f 14/17/10 13/16/10 17/21/13 
f 17/21/13 18/22/13 14/17/10 
f 13/16/4 15/18/4 19/23/4 
f 19/23/4 17/21/3 13/16/4 
f 15/18/11 16/19/11 20/24/14 
f 20/24/14 19/23/14 15/18/11 
f 16/19/12 14/20/12 18/25/15 
f 18/25/15 20/24/15 16/19/12 
f 18/22/13 17/21/13 21/26/16 
f 21/26/16 22/27/16 18/22/13 
f 17/21/3 19/23/4 23/28/17 
f 23/28/17 21/26/18 17/21/3 
f 19/23/14 20/24/14 24/29/19 
f 24/29/19 23/28/20 19/23/14 
f 20/24/15 18/25/15 22/30/15 
f 22/30/15 24/29/7 20/24/15 
f 22/27/16 21/26/16 25/31/21 
f 25/31/21 26/32/21 22/27/16 
f 21/26/18 23/28/17 27/33/18 
f 27/33/18 25/31/3 21/26/18 
f 23/28/20 24/29/19 28/34/22 
f 28/34/22 27/33/22 23/28/20 
f 24/29/7 22/30/15 26/35/7 
f 26/35/7 28/34/7 24/29/7 
f 26/32/21 25/31/21 29/36/23 
f 29/36/23 30/37/23 26/32/21 
f 25/31/3 27/33/18 31/38/3 
f 31/38/3 29/36/3 25/31/3 
f 28/34/7 26/35/7 30/39/7 
f 30/39/7 32/40/7 28/34/7 
f 30/37/23 29/36/23 33/41/24 
f 33/41/24 34/42/24 30/37/23 
f 29/36/3 31/38/3 35/43/3 
f 35/43/3 33/41/3 29/36/3 
f 31/38/25 32/40/25 36/44/26 
f 36/44/26 35/43/26 31/38/25 
f 32/40/7 30/39/7 34/45/15 
f 34/45/15 36/44/7 32/40/7 
f 34/42/24 33/41/24 37/46/27 
f 37/46/27 38/47/27 34/42/24 
f 33/41/3 35/43/3 39/48/4 
f 39/48/4 37/46/4 33/41/3 
f 35/43/26 36/44/26 40/49/28 
f 40/49/28 39/48/28 35/43/26 
f 36/44/7 34/45/15 38/50/29 
f 38/50/29 40/49/29 36/44/7 
f 38/47/27 37/46/27 41/51/30 
f 41/51/30 42/52/30 38/47/27 
f 37/46/4 39/48/4 43/53/4 
f 43/53/4 41/51/4 37/46/4 
f 39/48/28 40/49/28 44/54/31 
f 44/54/31 43/53/31 39/48/28 
f 40/49/29 38/50/29 42/55/15 
f 42/55/15 44/54/15 40/49/29 
f 42/52/30 41/51/30 45/56/32 
f 45/56/32 46/57/32 42/52/30 
f 41/51/4 43/53/4 47/58/4 
f 47/58/4 45/56/4 41/51/4 
f 43/53/31 44/54/31 48/59/33 
f 48/59/33 47/58/33 43/53/31 
f 44/54/15 42/55/15 46/60/12 
f 46/60/12 48/59/12 44/54/15 
f 46/57/32 45/56/32 49/61/34 
f 49/61/34 50/62/34 46/57/32 
f 45/56/4 47/58/4 51/63/3 
f 51/63/3 49/61/4 45/56/4 
f 47/58/33 48/59/33 52/64/35 
f 52/64/35 51/63/35 47/58/33 
f 48/59/12 46/60/12 50/65/15 
f 50/65/15 52/64/15 48/59/12 
f 50/62/34 49/61/34 53/66/36 
f 53/66/36 54/67/36 50/62/34 
f 49/61/4 51/63/3 55/68/4 
f 55/68/4 53/66/4 49/61/4 
f 51/63/35 52/64/35 56/69/37 
f 56/69/37 55/68/37 51/63/35 
f 52/64/15 50/65/15 54/70/15 
f 54/70/15 56/69/15 52/64/15 
f 54/67/36 53/66/36 57/71/38 
f 57/71/38 58/72/38 54/67/36 
f 53/66/4 55/68/4 59/73/4 
f 59/73/4 57/71/3 53/66/4 
f 56/69/15 54/70/15 58/74/15 
f 58/74/15 60/75/15 56/69/15 
f 58/72/38 57/71/38 61/76/39 
f 61/76/39 62/77/39 58/72/38 
f 57/71/3 59/73/4 63/78/17 
f 63/78/17 61/76/18 57/71/3 
f 59/73/40 60/75/40 64/79/41 
f 64/79/41 63/78/41 59/73/40 
f 60/75/15 58/74/15 62/80/15 
f 62/80/15 64/79/7 60/75/15 
f 62/77/39 61/76/39 65/81/42 
f 65/81/42 66/82/42 62/77/39 
f 61/76/18 63/78/17 67/83/4 
f 67/83/4 65/81/3 61/76/18 
f 63/78/41 64/79/41 68/84/43 
f 68/84/43 67/83/43 63/78/41 
f 64/79/7 62/80/15 66/85/7 
f 66/85/7 68/84/7 64/79/7 
f 66/82/42 65/81/42 69/86/44 
f 69/86/44 70/87/44 66/82/42 
f 65/81/3 67/83/4 71/88/3 
f 71/88/3 69/86/3 65/81/3 
f 67/83/43 68/84/43 72/89/45 
f 72/89/45 71/88/45 67/83/43 
f 68/84/7 66/85/7 70/90/29 
f 70/90/29 72/89/7 68/84/7 
f 70/87/44 69/86/44 73/91/46 
f 73/91/46 74/92/46 70/87/44 
f 69/86/3 71/88/3 75/93/3 
f 75/93/3 73/91/3 69/86/3 
f 71/88/45 72/89/45 76/94/47 
f 76/94/47 75/93/47 71/88/45 
f 72/89/7 70/90/29 74/95/15 
f 74/95/15 76/94/15 72/89/7 
f 74/92/46 73/91/46 77/96/48 
f 77/96/48 78/97/48 74/92/46 
f 73/91/3 75/93/3 79/98/3 
f 79/98/3 77/96/3 73/91/3 
f 75/93/47 76/94/47 80/99/49 
f 80/99/49 79/98/49 75/93/47 
f 76/94/15 74/95/15 78/100/15 
f 78/100/15 80/99/15 76/94/15 
f 78/97/48 77/96/48 2/101/1 
f 2/101/1 1/102/1 78/97/48 
f 77/96/3 79/98/3 5/103/3 
f 5/103/3 2/101/3 77/96/3 
f 79/98/49 80/99/49 7/104/5 
f 7/104/5 5/103/5 79/98/49 
f 80/99/15 78/100/15 1/105/7 
f 1/105/7 7/104/7 80/99/15 
f 27/33/50 28/34/50 81/34/50 
f 81/34/50 82/33/50 27/33/50 
f 28/34/7 32/40/7 83/40/7 
f 83/40/7 81/34/7 28/34/7 
f 32/40/51 31/38/51 84/38/51 
f 84/38/52 83/40/52 32/40/52 
f 31/38/4 27/33/4 82/33/4 
f 82/33/18 84/38/18 31/38/18 
f 55/68/53 56/69/53 85/69/53 
f 85/69/54 86/68/54 55/68/54 
f 56/69/7 60/75/7 87/75/7 
f 87/75/15 85/69/15 56/69/15 
f 60/75/55 59/73/55 88/73/55 
f 88/73/55 87/75/55 60/75/55 
f 59/73/4 55/68/4 86/68/4 
f 86/68/17 88/73/17 59/73/17 
f 84/38/18 82/33/18 88/73/18 
f 88/73/17 86/68/17 84/38/17 
f 85/69/7 87/75/7 81/34/7 
f 81/34/15 83/40/15 85/69/15 
f 84/38/56 86/68/56 85/69/56 
f 85/69/56 83/40/56 84/38/56 
f 81/34/1 87/75/1 88/73/1 
f 88/73/1 82/33/1 81/34/1 
# 180 faces

