# 3ds Max Wavefront OBJ Exporter v0.97b - (c)2007 guruware
# File Created: 10.06.2019 23:41:28

#
# object Group54471
#

v  -0.3555 0.0566 0.5249
v  -0.3528 0.1039 0.5249
v  -0.3565 0.1039 0.5249
v  -0.3618 0.0560 0.5249
v  -0.3195 0.0566 0.5249
v  -0.3222 0.1039 0.5249
v  -0.3944 0.1389 0.5249
v  -0.3836 0.1389 0.5249
v  -0.3836 0.1453 0.5249
v  -0.3766 0.0411 0.5249
v  -0.3880 0.0441 0.5249
v  -0.3927 0.0386 0.5249
v  -0.3825 0.0379 0.5249
v  -0.2926 0.0379 0.5249
v  -0.2985 0.0411 0.5249
v  -0.3836 0.1233 0.5249
v  -0.3944 0.1233 0.5249
v  -0.2914 0.1233 0.5249
v  -0.2914 0.1389 0.5249
v  -0.2914 0.1453 0.5249
v  -0.2870 0.0441 0.5249
v  -0.3132 0.0560 0.5249
v  -0.3843 -0.0364 0.5249
v  -0.2907 -0.0364 0.5249
v  -0.3952 0.0261 0.5249
v  -0.2798 0.0261 0.5249
v  -0.2823 0.0386 0.5249
v  -0.2806 0.1233 0.5249
v  -0.2806 0.1389 0.5249
v  -0.3186 0.1039 0.5249
v  0.3565 0.1039 0.5249
v  0.3528 0.1039 0.5249
v  0.3555 0.0566 0.5249
v  0.3618 0.0560 0.5249
v  0.3222 0.1039 0.5249
v  0.3195 0.0566 0.5249
v  0.3836 0.1453 0.5249
v  0.3836 0.1389 0.5249
v  0.3944 0.1389 0.5249
v  0.3766 0.0411 0.5249
v  0.3825 0.0379 0.5249
v  0.3927 0.0386 0.5249
v  0.3880 0.0441 0.5249
v  0.2985 0.0411 0.5249
v  0.2926 0.0379 0.5249
v  0.3944 0.1233 0.5249
v  0.3836 0.1233 0.5249
v  0.2914 0.1233 0.5249
v  0.2914 0.1453 0.5249
v  0.2914 0.1389 0.5249
v  0.3132 0.0560 0.5249
v  0.2870 0.0441 0.5249
v  0.2907 -0.0364 0.5249
v  0.3843 -0.0364 0.5249
v  0.3952 0.0261 0.5249
v  0.2798 0.0261 0.5249
v  0.2823 0.0386 0.5249
v  0.2806 0.1389 0.5249
v  0.2806 0.1233 0.5249
v  0.3186 0.1039 0.5249
v  -0.3565 0.1039 -0.5249
v  -0.3528 0.1039 -0.5249
v  -0.3555 0.0566 -0.5249
v  -0.3618 0.0560 -0.5249
v  -0.3222 0.1039 -0.5249
v  -0.3195 0.0566 -0.5249
v  -0.3836 0.1453 -0.5249
v  -0.3836 0.1389 -0.5249
v  -0.3944 0.1389 -0.5249
v  -0.3766 0.0411 -0.5249
v  -0.3825 0.0379 -0.5249
v  -0.3927 0.0386 -0.5249
v  -0.3880 0.0441 -0.5249
v  -0.2985 0.0411 -0.5249
v  -0.2926 0.0379 -0.5249
v  -0.3944 0.1233 -0.5249
v  -0.3836 0.1233 -0.5249
v  -0.2914 0.1233 -0.5249
v  -0.2914 0.1453 -0.5249
v  -0.2914 0.1389 -0.5249
v  -0.3132 0.0560 -0.5249
v  -0.2870 0.0441 -0.5249
v  -0.2907 -0.0364 -0.5249
v  -0.3843 -0.0364 -0.5249
v  -0.3952 0.0261 -0.5249
v  -0.2798 0.0261 -0.5249
v  -0.2823 0.0386 -0.5249
v  -0.2806 0.1389 -0.5249
v  -0.2806 0.1233 -0.5249
v  -0.3186 0.1039 -0.5249
v  0.3555 0.0566 -0.5249
v  0.3528 0.1039 -0.5249
v  0.3565 0.1039 -0.5249
v  0.3618 0.0560 -0.5249
v  0.3195 0.0566 -0.5249
v  0.3222 0.1039 -0.5249
v  0.3944 0.1389 -0.5249
v  0.3836 0.1389 -0.5249
v  0.3836 0.1453 -0.5249
v  0.3766 0.0411 -0.5249
v  0.3880 0.0441 -0.5249
v  0.3927 0.0386 -0.5249
v  0.3825 0.0379 -0.5249
v  0.2926 0.0379 -0.5249
v  0.2985 0.0411 -0.5249
v  0.3836 0.1233 -0.5249
v  0.3944 0.1233 -0.5249
v  0.2914 0.1233 -0.5249
v  0.2914 0.1389 -0.5249
v  0.2914 0.1453 -0.5249
v  0.2870 0.0441 -0.5249
v  0.3132 0.0560 -0.5249
v  0.3843 -0.0364 -0.5249
v  0.2907 -0.0364 -0.5249
v  0.3952 0.0261 -0.5249
v  0.2798 0.0261 -0.5249
v  0.2823 0.0386 -0.5249
v  0.2806 0.1233 -0.5249
v  0.2806 0.1389 -0.5249
v  0.3186 0.1039 -0.5249
# 120 vertices

vn 0.0000 0.0000 1.0000
vn 0.0000 0.0000 -1.0000
# 2 vertex normals

o Group54471
g Group54471
f 1//1 2//1 3//1 
f 3//1 4//1 1//1 
f 5//1 6//1 2//1 
f 2//1 1//1 5//1 
f 7//1 8//1 9//1 
f 10//1 11//1 12//1 
f 12//1 13//1 10//1 
f 14//1 15//1 10//1 
f 10//1 13//1 14//1 
f 16//1 17//1 3//1 
f 3//1 2//1 16//1 
f 6//1 18//1 16//1 
f 16//1 2//1 6//1 
f 19//1 20//1 9//1 
f 9//1 8//1 19//1 
f 5//1 15//1 21//1 
f 21//1 22//1 5//1 
f 13//1 23//1 24//1 
f 24//1 14//1 13//1 
f 16//1 8//1 7//1 
f 7//1 17//1 16//1 
f 18//1 19//1 8//1 
f 8//1 16//1 18//1 
f 13//1 12//1 25//1 
f 25//1 23//1 13//1 
f 14//1 24//1 26//1 
f 26//1 27//1 14//1 
f 28//1 29//1 19//1 
f 19//1 18//1 28//1 
f 19//1 29//1 20//1 
f 4//1 11//1 10//1 
f 10//1 1//1 4//1 
f 5//1 22//1 30//1 
f 30//1 6//1 5//1 
f 15//1 5//1 1//1 
f 1//1 10//1 15//1 
f 21//1 15//1 14//1 
f 14//1 27//1 21//1 
f 28//1 18//1 6//1 
f 6//1 30//1 28//1 
f 31//1 32//1 33//1 
f 33//1 34//1 31//1 
f 32//1 35//1 36//1 
f 36//1 33//1 32//1 
f 37//1 38//1 39//1 
f 40//1 41//1 42//1 
f 42//1 43//1 40//1 
f 40//1 44//1 45//1 
f 45//1 41//1 40//1 
f 31//1 46//1 47//1 
f 47//1 32//1 31//1 
f 47//1 48//1 35//1 
f 35//1 32//1 47//1 
f 37//1 49//1 50//1 
f 50//1 38//1 37//1 
f 51//1 52//1 44//1 
f 44//1 36//1 51//1 
f 53//1 54//1 41//1 
f 41//1 45//1 53//1 
f 39//1 38//1 47//1 
f 47//1 46//1 39//1 
f 38//1 50//1 48//1 
f 48//1 47//1 38//1 
f 41//1 54//1 55//1 
f 55//1 42//1 41//1 
f 56//1 53//1 45//1 
f 45//1 57//1 56//1 
f 50//1 58//1 59//1 
f 59//1 48//1 50//1 
f 49//1 58//1 50//1 
f 33//1 40//1 43//1 
f 43//1 34//1 33//1 
f 36//1 35//1 60//1 
f 60//1 51//1 36//1 
f 33//1 36//1 44//1 
f 44//1 40//1 33//1 
f 52//1 57//1 45//1 
f 45//1 44//1 52//1 
f 35//1 48//1 59//1 
f 59//1 60//1 35//1 
f 61//2 62//2 63//2 
f 63//2 64//2 61//2 
f 62//2 65//2 66//2 
f 66//2 63//2 62//2 
f 67//2 68//2 69//2 
f 70//2 71//2 72//2 
f 72//2 73//2 70//2 
f 70//2 74//2 75//2 
f 75//2 71//2 70//2 
f 61//2 76//2 77//2 
f 77//2 62//2 61//2 
f 77//2 78//2 65//2 
f 65//2 62//2 77//2 
f 67//2 79//2 80//2 
f 80//2 68//2 67//2 
f 81//2 82//2 74//2 
f 74//2 66//2 81//2 
f 83//2 84//2 71//2 
f 71//2 75//2 83//2 
f 69//2 68//2 77//2 
f 77//2 76//2 69//2 
f 68//2 80//2 78//2 
f 78//2 77//2 68//2 
f 71//2 84//2 85//2 
f 85//2 72//2 71//2 
f 86//2 83//2 75//2 
f 75//2 87//2 86//2 
f 80//2 88//2 89//2 
f 89//2 78//2 80//2 
f 79//2 88//2 80//2 
f 63//2 70//2 73//2 
f 73//2 64//2 63//2 
f 66//2 65//2 90//2 
f 90//2 81//2 66//2 
f 63//2 66//2 74//2 
f 74//2 70//2 63//2 
f 82//2 87//2 75//2 
f 75//2 74//2 82//2 
f 65//2 78//2 89//2 
f 89//2 90//2 65//2 
f 91//2 92//2 93//2 
f 93//2 94//2 91//2 
f 95//2 96//2 92//2 
f 92//2 91//2 95//2 
f 97//2 98//2 99//2 
f 100//2 101//2 102//2 
f 102//2 103//2 100//2 
f 104//2 105//2 100//2 
f 100//2 103//2 104//2 
f 106//2 107//2 93//2 
f 93//2 92//2 106//2 
f 96//2 108//2 106//2 
f 106//2 92//2 96//2 
f 109//2 110//2 99//2 
f 99//2 98//2 109//2 
f 95//2 105//2 111//2 
f 111//2 112//2 95//2 
f 103//2 113//2 114//2 
f 114//2 104//2 103//2 
f 106//2 98//2 97//2 
f 97//2 107//2 106//2 
f 108//2 109//2 98//2 
f 98//2 106//2 108//2 
f 103//2 102//2 115//2 
f 115//2 113//2 103//2 
f 104//2 114//2 116//2 
f 116//2 117//2 104//2 
f 118//2 119//2 109//2 
f 109//2 108//2 118//2 
f 109//2 119//2 110//2 
f 94//2 101//2 100//2 
f 100//2 91//2 94//2 
f 95//2 112//2 120//2 
f 120//2 96//2 95//2 
f 105//2 95//2 91//2 
f 91//2 100//2 105//2 
f 111//2 105//2 104//2 
f 104//2 117//2 111//2 
f 118//2 108//2 96//2 
f 96//2 120//2 118//2 
# 160 faces

#
# object Group23216
#

v  -0.5145 0.0159 0.4328
v  -0.4930 0.0159 0.4610
v  -0.4930 0.0335 0.4328
v  -0.4930 0.0000 0.4610
v  -0.5145 0.0000 0.4328
v  -0.5145 0.0159 0.3451
v  -0.5145 0.0000 0.3451
v  -0.4930 -0.0277 0.3451
v  -0.4930 -0.0277 0.4328
v  -0.4930 0.0000 0.3169
v  -0.4930 0.0335 0.3451
v  -0.4930 0.0159 0.3169
v  -0.4930 -0.0277 -0.4328
v  -0.4930 0.0000 -0.4610
v  0.4930 0.0000 -0.4610
v  0.4930 -0.0277 -0.4328
v  0.5145 0.0000 -0.4328
v  -0.4930 -0.0277 -0.3451
v  0.4930 -0.0277 -0.3451
v  0.5145 0.0000 -0.3451
v  0.5145 0.0159 -0.3451
v  0.4930 0.0159 -0.3169
v  0.4930 0.0000 -0.3169
v  -0.4930 0.0000 -0.3169
v  0.4930 0.0335 -0.3451
v  0.4930 0.0335 -0.4328
v  0.5145 0.0159 -0.4328
v  0.4930 0.0335 0.4328
v  0.4930 0.0159 0.4610
v  0.5145 0.0159 0.4328
v  0.4930 0.0000 0.4610
v  0.5145 0.0000 0.4328
v  0.4930 0.0159 0.3169
v  0.4930 0.0000 0.3169
v  0.4930 0.0335 0.3451
v  0.5145 0.0159 0.3451
v  0.5145 0.0000 0.3451
v  0.4930 -0.0277 0.4328
v  0.4930 -0.0277 0.3451
v  -0.4930 0.0335 -0.4328
v  -0.4930 0.0159 -0.4610
v  -0.5145 0.0159 -0.4328
v  -0.5145 0.0000 -0.4328
v  -0.5145 0.0159 -0.3451
v  -0.5145 0.0000 -0.3451
v  -0.4930 0.0335 -0.3451
v  -0.4930 0.0159 -0.3169
v  0.4930 0.0159 -0.4610
# 48 vertices

vn -0.8774 0.3890 0.2808
vn -0.3819 0.4228 0.8218
vn -0.3131 0.9159 0.2514
vn -0.3954 -0.3376 0.8542
vn -0.9095 -0.2960 0.2918
vn -0.8773 0.3890 -0.2812
vn -0.9094 -0.2960 -0.2923
vn -0.3930 -0.8579 -0.3312
vn -0.3930 -0.8580 0.3307
vn -0.3950 -0.3372 -0.8545
vn -0.3130 0.9157 -0.2518
vn -0.3816 0.4225 -0.8221
vn -0.3930 -0.8580 -0.3307
vn -0.3954 -0.3376 -0.8542
vn 0.3954 -0.3376 -0.8542
vn 0.3930 -0.8580 -0.3307
vn 0.9095 -0.2960 -0.2918
vn -0.3930 -0.8579 0.3312
vn 0.3930 -0.8579 0.3312
vn 0.9094 -0.2960 0.2923
vn 0.8773 0.3890 0.2812
vn 0.3816 0.4225 0.8221
vn 0.3950 -0.3372 0.8545
vn -0.3950 -0.3372 0.8545
vn 0.3130 0.9157 0.2518
vn 0.3131 0.9159 -0.2514
vn 0.8774 0.3890 -0.2808
vn 0.3131 0.9159 0.2514
vn 0.3819 0.4228 0.8218
vn 0.8774 0.3890 0.2808
vn 0.3954 -0.3376 0.8542
vn 0.9095 -0.2960 0.2918
vn 0.3816 0.4225 -0.8221
vn 0.3950 -0.3372 -0.8545
vn 0.3130 0.9157 -0.2518
vn 0.8773 0.3890 -0.2812
vn 0.9094 -0.2960 -0.2923
vn 0.3930 -0.8580 0.3307
vn 0.3930 -0.8579 -0.3312
vn -0.3131 0.9159 -0.2514
vn -0.3819 0.4228 -0.8218
vn -0.8774 0.3890 -0.2808
vn -0.9095 -0.2960 -0.2918
vn -0.8773 0.3890 0.2812
vn -0.9094 -0.2960 0.2923
vn -0.3130 0.9157 0.2518
vn -0.3816 0.4225 0.8221
vn 0.3819 0.4228 -0.8218
# 48 vertex normals

o Group23216
g Group23216
f 121//3 122//4 123//5 
f 124//6 122//4 121//3 
f 121//3 125//7 124//6 
f 125//7 121//3 126//8 
f 126//8 127//9 125//7 
f 128//10 129//11 125//7 
f 125//7 127//9 128//10 
f 127//9 130//12 128//10 
f 123//5 131//13 126//8 
f 126//8 121//3 123//5 
f 126//8 131//13 132//14 
f 127//9 126//8 132//14 
f 132//14 130//12 127//9 
f 125//7 129//11 124//6 
f 133//15 134//16 135//17 
f 135//17 136//18 133//15 
f 137//19 136//18 135//17 
f 138//20 133//15 136//18 
f 136//18 139//21 138//20 
f 140//22 141//23 142//24 
f 142//24 143//25 140//22 
f 144//26 138//20 139//21 
f 139//21 143//25 144//26 
f 141//23 145//27 142//24 
f 146//28 145//27 141//23 
f 141//23 147//29 146//28 
f 140//22 143//25 139//21 
f 139//21 136//18 137//19 
f 137//19 140//22 139//21 
f 148//30 149//31 150//32 
f 150//32 149//31 151//33 
f 151//33 152//34 150//32 
f 132//14 153//35 154//36 
f 154//36 130//12 132//14 
f 153//35 132//14 131//13 
f 131//13 155//37 153//35 
f 156//38 150//32 152//34 
f 152//34 157//39 156//38 
f 148//30 123//5 122//4 
f 122//4 149//31 148//30 
f 149//31 122//4 124//6 
f 124//6 151//33 149//31 
f 155//37 131//13 123//5 
f 123//5 148//30 155//37 
f 152//34 158//40 159//41 
f 159//41 157//39 152//34 
f 159//41 154//36 157//39 
f 156//38 155//37 148//30 
f 148//30 150//32 156//38 
f 153//35 155//37 156//38 
f 159//41 128//10 130//12 
f 130//12 154//36 159//41 
f 153//35 156//38 157//39 
f 157//39 154//36 153//35 
f 158//40 129//11 128//10 
f 128//10 159//41 158//40 
f 151//33 158//40 152//34 
f 151//33 124//6 129//11 
f 129//11 158//40 151//33 
f 160//42 161//43 162//44 
f 162//44 161//43 134//16 
f 134//16 163//45 162//44 
f 164//46 162//44 163//45 
f 163//45 165//47 164//46 
f 163//45 133//15 138//20 
f 138//20 165//47 163//45 
f 138//20 144//26 165//47 
f 164//46 166//48 160//42 
f 160//42 162//44 164//46 
f 167//49 166//48 164//46 
f 167//49 164//46 165//47 
f 165//47 144//26 167//49 
f 134//16 133//15 163//45 
f 147//29 168//50 146//28 
f 135//17 168//50 147//29 
f 147//29 137//19 135//17 
f 143//25 142//24 167//49 
f 167//49 144//26 143//25 
f 166//48 167//49 142//24 
f 142//24 145//27 166//48 
f 137//19 147//29 141//23 
f 141//23 140//22 137//19 
f 161//43 160//42 146//28 
f 146//28 168//50 161//43 
f 134//16 161//43 168//50 
f 168//50 135//17 134//16 
f 160//42 166//48 145//27 
f 145//27 146//28 160//42 
# 88 faces

#
# object Group23261
#

v  -0.5145 0.0159 0.1736
v  -0.4930 0.0159 0.2017
v  -0.4930 0.0335 0.1736
v  -0.4930 0.0335 0.0859
v  -0.5145 0.0159 0.0859
v  -0.4930 0.0000 0.2017
v  -0.5145 0.0000 0.1736
v  -0.4930 0.0000 0.0577
v  -0.4930 0.0159 0.0577
v  0.4930 0.0159 0.0577
v  0.4930 0.0000 0.0577
v  0.4930 0.0335 0.0859
v  0.4930 0.0335 0.1736
v  0.4930 0.0159 0.2017
v  0.4930 0.0000 0.2017
v  -0.5145 0.0000 0.0859
v  -0.4930 -0.0277 0.0859
v  0.4930 -0.0277 0.0859
v  -0.4930 -0.0277 0.1736
v  0.4930 -0.0277 0.1736
v  0.4930 -0.0277 -0.0859
v  0.4930 -0.0277 -0.1736
v  0.5145 0.0000 -0.1736
v  0.5145 0.0000 -0.0859
v  0.4930 0.0000 -0.2017
v  0.5145 0.0159 -0.0859
v  0.4930 0.0159 -0.0577
v  0.4930 0.0000 -0.0577
v  0.5145 0.0159 -0.1736
v  0.4930 0.0335 -0.0859
v  0.4930 0.0159 -0.2017
v  0.4930 0.0335 -0.1736
v  0.5145 0.0159 0.1736
v  0.5145 0.0159 0.0859
v  0.5145 0.0000 0.1736
v  0.5145 0.0000 0.0859
v  -0.4930 0.0335 -0.1736
v  -0.4930 0.0159 -0.2017
v  -0.5145 0.0159 -0.1736
v  -0.5145 0.0159 -0.0859
v  -0.4930 0.0335 -0.0859
v  -0.4930 0.0000 -0.2017
v  -0.5145 0.0000 -0.1736
v  -0.4930 0.0159 -0.0577
v  -0.4930 0.0000 -0.0577
v  -0.4930 -0.0277 -0.0859
v  -0.5145 0.0000 -0.0859
v  -0.4930 -0.0277 -0.1736
# 48 vertices

vn -0.8773 0.3890 0.2812
vn -0.3816 0.4225 0.8221
vn -0.3130 0.9157 0.2518
vn -0.3131 0.9159 -0.2514
vn -0.8774 0.3890 -0.2808
vn -0.3950 -0.3372 0.8545
vn -0.9094 -0.2960 0.2923
vn -0.3954 -0.3376 -0.8542
vn -0.3819 0.4228 -0.8218
vn 0.3819 0.4228 -0.8218
vn 0.3954 -0.3376 -0.8542
vn 0.3131 0.9159 -0.2514
vn 0.3130 0.9157 0.2518
vn 0.3816 0.4225 0.8221
vn 0.3950 -0.3372 0.8545
vn -0.9095 -0.2960 -0.2918
vn -0.3930 -0.8580 -0.3307
vn 0.3930 -0.8580 -0.3307
vn -0.3930 -0.8579 0.3312
vn 0.3930 -0.8579 0.3312
vn 0.3930 -0.8580 0.3307
vn 0.3930 -0.8579 -0.3312
vn 0.9094 -0.2960 -0.2923
vn 0.9095 -0.2960 0.2918
vn 0.3950 -0.3372 -0.8545
vn 0.8774 0.3890 0.2808
vn 0.3819 0.4228 0.8218
vn 0.3954 -0.3376 0.8542
vn 0.8773 0.3890 -0.2812
vn 0.3131 0.9159 0.2514
vn 0.3816 0.4225 -0.8221
vn 0.3130 0.9157 -0.2518
vn 0.8773 0.3890 0.2812
vn 0.8774 0.3890 -0.2808
vn 0.9094 -0.2960 0.2923
vn 0.9095 -0.2960 -0.2918
vn -0.3130 0.9157 -0.2518
vn -0.3816 0.4225 -0.8221
vn -0.8773 0.3890 -0.2812
vn -0.8774 0.3890 0.2808
vn -0.3131 0.9159 0.2514
vn -0.3950 -0.3372 -0.8545
vn -0.9094 -0.2960 -0.2923
vn -0.3819 0.4228 0.8218
vn -0.3954 -0.3376 0.8542
vn -0.3930 -0.8580 0.3307
vn -0.9095 -0.2960 0.2918
vn -0.3930 -0.8579 -0.3312
# 48 vertex normals

o Group23261
g Group23261
f 169//51 170//52 171//53 
f 171//53 172//54 173//55 
f 173//55 169//51 171//53 
f 174//56 170//52 169//51 
f 169//51 175//57 174//56 
f 176//58 177//59 178//60 
f 178//60 179//61 176//58 
f 180//62 178//60 177//59 
f 177//59 172//54 180//62 
f 181//63 180//62 172//54 
f 172//54 171//53 181//63 
f 182//64 181//63 171//53 
f 171//53 170//52 182//64 
f 183//65 182//64 170//52 
f 170//52 174//56 183//65 
f 184//66 176//58 185//67 
f 173//55 172//54 177//59 
f 175//57 169//51 173//55 
f 173//55 184//66 175//57 
f 179//61 186//68 185//67 
f 185//67 176//58 179//61 
f 184//66 173//55 177//59 
f 177//59 176//58 184//66 
f 175//57 187//69 174//56 
f 185//67 187//69 175//57 
f 175//57 184//66 185//67 
f 186//68 188//70 187//69 
f 187//69 185//67 186//68 
f 188//70 183//65 174//56 
f 174//56 187//69 188//70 
f 189//71 190//72 191//73 
f 191//73 192//74 189//71 
f 191//73 190//72 193//75 
f 192//74 194//76 195//77 
f 195//77 196//78 192//74 
f 191//73 197//79 194//76 
f 194//76 192//74 191//73 
f 194//76 198//80 195//77 
f 192//74 196//78 189//71 
f 193//75 199//81 197//79 
f 197//79 191//73 193//75 
f 200//82 198//80 194//76 
f 194//76 197//79 200//82 
f 197//79 199//81 200//82 
f 181//63 182//64 201//83 
f 202//84 180//62 181//63 
f 181//63 201//83 202//84 
f 201//83 182//64 183//65 
f 183//65 203//85 201//83 
f 186//68 179//61 204//86 
f 178//60 180//62 202//84 
f 202//84 201//83 203//85 
f 203//85 204//86 202//84 
f 178//60 202//84 204//86 
f 204//86 179//61 178//60 
f 183//65 188//70 203//85 
f 203//85 188//70 186//68 
f 186//68 204//86 203//85 
f 205//87 206//88 207//89 
f 208//90 209//91 205//87 
f 205//87 207//89 208//90 
f 207//89 206//88 210//92 
f 210//92 211//93 207//89 
f 195//77 212//94 213//95 
f 213//95 196//78 195//77 
f 212//94 195//77 198//80 
f 198//80 209//91 212//94 
f 209//91 198//80 200//82 
f 200//82 205//87 209//91 
f 205//87 200//82 199//81 
f 199//81 206//88 205//87 
f 206//88 199//81 193//75 
f 193//75 210//92 206//88 
f 214//96 213//95 215//97 
f 212//94 209//91 208//90 
f 208//90 207//89 211//93 
f 211//93 215//97 208//90 
f 214//96 189//71 196//78 
f 196//78 213//95 214//96 
f 212//94 208//90 215//97 
f 215//97 213//95 212//94 
f 210//92 216//98 211//93 
f 211//93 216//98 214//96 
f 214//96 215//97 211//93 
f 216//98 190//72 189//71 
f 189//71 214//96 216//98 
f 210//92 193//75 190//72 
f 190//72 216//98 210//92 
# 88 faces

#
# object Group23111
#

v  -0.2870 0.0441 -0.5249
v  -0.3132 0.0560 -0.5249
v  -0.3132 0.0560 0.5249
v  -0.2870 0.0441 0.5249
v  -0.2823 0.0386 0.5249
v  -0.2798 0.0261 0.5249
v  -0.2798 0.0261 -0.5249
v  -0.2823 0.0386 -0.5249
v  -0.2907 -0.0364 -0.5249
v  -0.2907 -0.0364 0.5249
v  -0.3843 -0.0364 0.5249
v  -0.3843 -0.0364 -0.5249
v  -0.3927 0.0386 -0.5249
v  -0.3952 0.0261 -0.5249
v  -0.3952 0.0261 0.5249
v  -0.3927 0.0386 0.5249
v  -0.3880 0.0441 0.5249
v  -0.3618 0.0560 0.5249
v  -0.3618 0.0560 -0.5249
v  -0.3880 0.0441 -0.5249
v  -0.2806 0.1233 -0.5249
v  -0.2806 0.1389 -0.5249
v  -0.2806 0.1389 0.5249
v  -0.2806 0.1233 0.5249
v  -0.2914 0.1453 0.5249
v  -0.2914 0.1453 -0.5249
v  -0.3836 0.1453 -0.5249
v  -0.3836 0.1453 0.5249
v  -0.3944 0.1233 0.5249
v  -0.3944 0.1389 0.5249
v  -0.3944 0.1389 -0.5249
v  -0.3944 0.1233 -0.5249
v  -0.3186 0.1039 -0.5249
v  -0.3186 0.1039 0.5249
v  -0.3565 0.1039 0.5249
v  -0.3565 0.1039 -0.5249
# 36 vertices

vn 0.5983 0.8013 -0.0000
vn 0.8091 0.5876 -0.0000
vn 0.8974 0.4412 -0.0000
vn 0.9999 0.0125 -0.0000
vn 0.6432 -0.7657 -0.0000
vn -0.6432 -0.7657 -0.0000
vn -0.8970 0.4420 -0.0000
vn -0.9999 0.0100 -0.0000
vn -0.5956 0.8033 -0.0000
vn -0.8095 0.5871 -0.0000
vn 0.8526 -0.5226 -0.0000
vn 0.8678 0.4969 -0.0000
vn 0.2622 0.9650 -0.0000
vn -0.2635 0.9647 -0.0000
vn -0.8528 -0.5223 -0.0000
vn -0.8684 0.4958 -0.0000
vn 0.8807 -0.4736 -0.0000
vn -0.8806 -0.4739 -0.0000
# 18 vertex normals

o Group23111
g Group23111
f 217//99 218//100 219//100 
f 219//100 220//99 217//99 
f 221//101 222//102 223//102 
f 223//102 224//101 221//101 
f 225//103 226//103 227//104 
f 227//104 228//104 225//103 
f 229//105 230//106 231//106 
f 231//106 232//105 229//105 
f 228//104 227//104 231//106 
f 231//106 230//106 228//104 
f 233//107 234//108 235//108 
f 235//108 236//107 233//107 
f 223//102 222//102 226//103 
f 226//103 225//103 223//102 
f 237//109 238//110 239//110 
f 239//110 240//109 237//109 
f 241//111 242//111 243//112 
f 243//112 244//112 241//111 
f 245//113 246//114 247//114 
f 247//114 248//113 245//113 
f 249//115 237//109 240//109 
f 240//109 250//115 249//115 
f 251//116 245//113 248//113 
f 248//113 252//116 251//116 
f 232//105 233//107 236//107 
f 236//107 229//105 232//105 
f 238//110 242//111 241//111 
f 241//111 239//110 238//110 
f 224//101 217//99 220//99 
f 220//99 221//101 224//101 
f 234//108 251//116 252//116 
f 252//116 235//108 234//108 
f 246//114 244//112 243//112 
f 243//112 247//114 246//114 
f 218//100 249//115 250//115 
f 250//115 219//100 218//100 
# 36 faces

#
# object Group23141
#

v  0.3132 0.0560 0.5249
v  0.3186 0.1039 0.5249
v  0.3186 0.1039 -0.5249
v  0.3132 0.0560 -0.5249
v  0.3944 0.1389 -0.5249
v  0.3836 0.1453 -0.5249
v  0.3836 0.1453 0.5249
v  0.3944 0.1389 0.5249
v  0.3618 0.0560 -0.5249
v  0.3565 0.1039 -0.5249
v  0.3565 0.1039 0.5249
v  0.3618 0.0560 0.5249
v  0.2823 0.0386 0.5249
v  0.2870 0.0441 0.5249
v  0.2870 0.0441 -0.5249
v  0.2823 0.0386 -0.5249
v  0.2806 0.1389 0.5249
v  0.2914 0.1453 0.5249
v  0.2914 0.1453 -0.5249
v  0.2806 0.1389 -0.5249
v  0.3927 0.0386 -0.5249
v  0.3880 0.0441 -0.5249
v  0.3880 0.0441 0.5249
v  0.3927 0.0386 0.5249
v  0.3944 0.1233 -0.5249
v  0.3944 0.1233 0.5249
v  0.2806 0.1233 0.5249
v  0.2806 0.1233 -0.5249
v  0.2798 0.0261 0.5249
v  0.2798 0.0261 -0.5249
v  0.2907 -0.0364 -0.5249
v  0.2907 -0.0364 0.5249
v  0.3843 -0.0364 0.5249
v  0.3843 -0.0364 -0.5249
v  0.3952 0.0261 -0.5249
v  0.3952 0.0261 0.5249
# 36 vertices

vn -0.8091 0.5876 -0.0000
vn -0.8807 -0.4736 -0.0000
vn 0.8684 0.4958 -0.0000
vn 0.2635 0.9647 -0.0000
vn 0.8095 0.5871 -0.0000
vn 0.8806 -0.4739 -0.0000
vn -0.8974 0.4412 -0.0000
vn -0.5983 0.8013 -0.0000
vn -0.8678 0.4969 -0.0000
vn -0.2622 0.9650 -0.0000
vn 0.8970 0.4420 -0.0000
vn 0.5956 0.8033 -0.0000
vn 0.8528 -0.5223 -0.0000
vn -0.8526 -0.5226 -0.0000
vn -0.9999 0.0125 -0.0000
vn -0.6432 -0.7657 -0.0000
vn 0.6432 -0.7657 -0.0000
vn 0.9999 0.0100 -0.0000
# 18 vertex normals

o Group23141
g Group23141
f 253//117 254//118 255//118 
f 255//118 256//117 253//117 
f 257//119 258//120 259//120 
f 259//120 260//119 257//119 
f 261//121 262//122 263//122 
f 263//122 264//121 261//121 
f 265//123 266//124 267//124 
f 267//124 268//123 265//123 
f 269//125 270//126 271//126 
f 271//126 272//125 269//125 
f 273//127 274//128 275//128 
f 275//128 276//127 273//127 
f 262//122 277//129 278//129 
f 278//129 263//122 262//122 
f 254//118 279//130 280//130 
f 280//130 255//118 254//118 
f 277//129 257//119 260//119 
f 260//119 278//129 277//129 
f 271//126 270//126 259//120 
f 259//120 258//120 271//126 
f 279//130 269//125 272//125 
f 272//125 280//130 279//130 
f 281//131 282//131 283//132 
f 283//132 284//132 281//131 
f 274//128 261//121 264//121 
f 264//121 275//128 274//128 
f 285//133 286//133 287//134 
f 287//134 288//134 285//133 
f 276//127 288//134 287//134 
f 287//134 273//127 276//127 
f 284//132 283//132 286//133 
f 286//133 285//133 284//132 
f 268//123 282//131 281//131 
f 281//131 265//123 268//123 
f 266//124 253//117 256//117 
f 256//117 267//124 266//124 
# 36 faces

