# 3ds Max Wavefront OBJ Exporter v0.97b - (c)2007 guruware
# File Created: 24.06.2019 23:40:24

#
# object Icosphere
#

v  146.2968 285.2237 -47.8988
v  236.3284 324.9964 16.6794
v  141.9485 257.9090 63.4240
v  303.2403 404.4359 73.0496
v  325.9368 392.7427 -48.9208
v  35.3279 340.0864 -46.1348
v  112.4240 310.2084 -161.6773
v  232.2454 319.1125 -110.4586
v  343.2614 506.4432 21.5801
v  83.9506 420.8779 120.1922
v  255.9981 354.8849 155.5185
v  138.0059 508.3432 149.4018
v  -36.9225 420.8787 -46.1740
v  3.4123 405.5220 51.6132
v  -47.9983 508.3432 14.2613
v  87.9661 407.8551 -232.5459
v  3.4123 405.5220 -143.9612
v  23.0489 508.3431 -204.3979
v  330.4296 395.6850 -170.1641
v  214.9325 375.7992 -234.9833
v  275.0161 508.1035 -227.7457
v  290.0477 509.5122 129.7263
v  23.0489 508.3432 112.0499
v  -47.9983 508.3432 -106.6093
v  161.6752 512.1229 -302.2712
v  348.2835 506.4806 -110.6864
v  206.0630 606.6917 131.2774
v  314.7758 642.4677 86.0611
v  165.9796 670.8264 50.4279
v  -3.5145 595.8084 56.6450
v  86.5947 611.1647 112.0489
v  55.5331 691.2363 17.2391
v  -3.5145 595.8083 -148.9930
v  -28.3606 611.1643 -46.1740
v  54.8293 676.5756 -107.3609
v  215.4721 614.1661 -249.5785
v  87.7881 615.0208 -208.8879
v  180.3019 716.2192 -166.9725
v  356.4546 613.8242 -45.4157
v  313.2974 633.2744 -160.4187
v  261.0824 714.4041 -43.9174
v  153.4897 764.2471 -46.5491
v  108.6875 247.2152 163.9737
v  247.0046 317.9463 235.2490
v  77.4940 285.5471 305.6372
v  242.2581 497.2859 213.5750
v  251.7130 460.5258 92.7548
v  -37.4120 249.9998 176.5020
v  23.8767 228.3578 55.5523
v  182.7031 293.5201 54.2969
v  239.6147 621.6755 147.7941
v  22.0644 408.0730 389.8298
v  197.5751 434.9962 362.9488
v  51.3736 569.7743 399.0613
v  -172.9000 308.8776 194.6104
v  -94.3350 319.7775 322.3076
v  -229.5595 435.3555 267.0776
v  -61.0369 341.5485 -51.1608
v  -136.7926 285.8827 78.8854
v  -198.8466 420.3511 -21.0947
v  173.7671 447.3158 -38.7095
v  66.8961 375.7117 -74.5662
v  87.2366 521.5072 -108.2936
v  190.8094 614.9951 303.2041
v  -124.5034 499.0639 392.6918
v  -253.9650 405.4647 112.1172
v  -50.7115 460.6273 -116.5800
v  190.6329 577.3591 -13.4530
v  63.3435 693.0559 310.7684
v  139.1975 739.5421 187.3245
v  -29.7701 769.4455 219.5713
v  -226.2562 584.1108 313.5129
v  -93.2979 661.1390 350.4514
v  -206.8912 712.6230 218.0783
v  -250.9606 522.3489 26.9977
v  -260.5074 553.1741 164.1435
v  -226.7364 663.8260 51.4582
v  -26.3147 591.7664 -110.1908
v  -152.6730 564.8085 -69.1365
v  -77.5671 697.6231 -32.7629
v  147.4512 690.5511 51.8532
v  73.0661 662.5643 -55.4644
v  35.4358 794.4891 69.8221
v  -107.9621 754.6588 94.9977
v  92.8338 226.8068 -33.6992
v  195.2666 357.9333 -16.1805
v  89.1143 316.4726 89.7484
v  232.6140 494.6807 -16.7268
v  237.8443 437.6088 -149.4277
v  -31.7427 235.8168 41.1683
v  15.4808 233.6979 -142.9318
v  146.0246 287.5336 -168.5155
v  225.1207 593.3999 -106.9845
v  45.0886 454.3453 154.1924
v  164.1406 468.4213 94.9395
v  76.3644 583.3224 139.3512
v  -184.8970 323.3421 71.8978
v  -63.7410 383.8725 122.2043
v  -214.9898 467.2407 92.5024
v  -84.3370 309.3740 -252.4666
v  -147.4436 300.0594 -94.7346
v  -220.8754 418.0027 -224.4991
v  166.1864 378.9838 -304.8800
v  34.5207 326.1849 -282.2062
v  60.8329 484.5389 -335.9932
v  189.4647 610.0464 40.7020
v  -64.2606 530.9740 156.3505
v  -291.0464 434.9010 -45.6444
v  -90.6492 425.0435 -331.1425
v  195.0084 560.7551 -291.5062
v  91.2152 736.6195 67.8348
v  153.3216 772.6505 -64.3995
v  -10.2409 785.1846 -22.2543
v  -175.4617 610.7733 91.3932
v  -41.5966 669.9984 100.6550
v  -172.2757 726.4264 -4.4564
v  -257.0803 531.4722 -144.2082
v  -282.7849 590.1537 -29.0949
v  -233.7742 676.0256 -154.4971
v  -63.5342 580.8204 -371.3701
v  -184.9751 554.6696 -270.9735
v  -113.1313 740.4913 -295.7613
v  157.7582 720.8366 -230.8284
v  62.5606 658.0840 -325.4072
v  33.9108 771.0711 -187.3140
v  -103.2050 759.6107 -134.5592
v  -72.2410 245.6458 -75.8740
v  -16.5709 274.0645 -71.3034
v  -73.9178 222.8385 18.4190
v  -0.0412 362.0071 -74.3639
v  -2.5073 335.9447 -135.9296
v  -143.1774 209.4903 -40.3994
v  -115.6523 251.0480 -132.3563
v  -38.6265 260.6704 -144.7638
v  -4.1071 410.2600 -118.4656
v  -95.3006 323.1527 25.0198
v  -33.6702 347.5504 -18.4171
v  -76.6417 405.4937 2.1494
v  -230.9074 245.3197 -21.8729
v  -180.3985 247.4663 42.0367
v  -252.9283 323.8441 11.1983
v  -165.9142 267.7202 -180.9352
v  -195.9043 250.8505 -115.8187
v  -215.7598 313.1163 -171.2064
v  -32.5228 303.9754 -202.3797
v  -93.8606 281.5448 -204.1974
v  -79.5480 343.6887 -251.8276
v  -22.6017 417.1174 -47.1047
v  -176.3090 363.4450 45.8269
v  -251.6808 313.6409 -81.8181
v  -162.7402 320.4321 -236.7458
v  -28.1686 387.4854 -184.8128
v  -72.9632 457.7467 -37.1265
v  -46.9716 466.5174 -96.5741
v  -116.0729 485.4240 -77.8938
v  -246.6814 419.5417 2.3128
v  -135.9137 447.7802 -15.9901
v  -212.1227 469.8125 -69.9842
v  -261.4509 380.9976 -143.6519
v  -293.0965 414.8358 -66.6602
v  -259.5388 463.0661 -155.1904
v  -144.0890 394.8176 -235.7527
v  -226.2258 391.6011 -218.5388
v  -161.1172 451.8405 -191.5066
v  -41.4974 446.0803 -158.5321
v  -85.9999 429.7851 -203.8549
v  -97.5776 478.5668 -149.2538
v  -160.1315 478.8398 -127.0585
# 168 vertices

vn 0.5060 -0.8420 -0.1868
vn 0.6781 -0.7089 0.1941
vn -0.4342 -0.8708 -0.2306
vn -0.4431 -0.8942 -0.0644
vn 0.1826 -0.9475 -0.2624
vn 0.9422 -0.2682 0.2010
vn -0.2569 -0.1595 0.9532
vn -0.8897 -0.3304 0.3151
vn -0.6948 -0.2612 -0.6701
vn 0.5049 -0.1832 -0.8435
vn 0.8889 -0.1260 0.4405
vn 0.8887 -0.1262 0.4409
vn 0.8910 -0.1237 0.4367
vn -0.3066 -0.1256 0.9435
vn -0.9921 -0.1256 0.0000
vn -0.5685 -0.1402 -0.8106
vn 0.8395 0.1457 -0.5234
vn 0.0006 0.7836 0.6213
vn -0.4972 0.5757 0.6491
vn -0.7097 0.6512 -0.2688
vn -0.2491 0.5557 -0.7932
vn -0.2511 0.5458 -0.7994
vn -0.2490 0.5561 -0.7930
vn 0.7159 0.6811 -0.1535
vn 0.4114 0.8744 -0.2572
vn 0.5120 0.7954 -0.3244
vn 0.4372 0.6521 -0.6194
vn -0.4476 0.7919 -0.4155
vn -0.4801 0.6723 -0.5635
vn -0.5060 0.6549 -0.5613
vn -0.6312 0.7707 -0.0871
vn -0.6537 0.7520 -0.0848
vn -0.7640 0.5851 0.2720
vn -0.0776 0.7130 0.6969
vn -0.0576 0.7533 0.6551
vn -0.0748 0.7629 0.6422
vn 0.3106 0.7042 0.6384
vn 0.0569 0.8833 0.4654
vn 0.7239 0.6852 0.0802
vn 0.9354 0.1290 -0.3292
vn 0.8475 0.0259 -0.5301
vn 0.6372 0.2048 -0.7430
vn -0.2512 0.5454 -0.7997
vn -0.5549 0.3042 -0.7743
vn -0.5662 0.3115 -0.7632
vn -0.9050 0.3304 -0.2680
vn -0.9822 0.1876 -0.0000
vn -0.9050 0.3304 0.2680
vn -0.5346 0.3304 0.7779
vn -0.3035 0.1876 0.9342
vn -0.1428 0.2741 0.9510
vn 0.3020 0.2463 0.9209
vn 0.8968 -0.0217 0.4419
vn 0.9552 0.0630 0.2891
vn 0.5476 0.1375 -0.8254
vn 0.5337 -0.1974 -0.8223
vn -0.1381 -0.4812 -0.8656
vn -0.8026 0.1256 -0.5831
vn -0.7947 -0.1876 -0.5773
vn -0.8897 -0.3304 -0.3151
vn -0.8026 0.1256 0.5831
vn -0.7947 -0.1876 0.5773
vn -0.5746 -0.3304 0.7488
vn 0.1271 0.0940 0.9874
vn 0.1261 0.1361 0.9826
vn 0.8913 -0.1235 0.4364
vn 0.9944 -0.0986 0.0377
vn 0.9842 -0.1731 0.0373
vn 0.9840 -0.1745 0.0347
vn 0.9839 -0.1758 0.0323
vn 0.9839 -0.1758 0.0322
vn 0.3806 -0.8205 -0.4264
vn 0.2482 -0.8682 -0.4297
vn -0.1680 -0.6062 -0.7773
vn -0.5888 -0.5662 -0.5769
vn -0.6594 -0.7064 -0.2573
vn -0.7305 -0.6534 -0.1987
vn -0.7297 -0.6540 0.1995
vn -0.7260 -0.6571 0.2028
vn -0.7306 -0.6532 0.1988
vn -0.7216 -0.6607 0.2067
vn -0.5316 -0.4411 0.7231
vn 0.6164 -0.7874 0.0037
vn 0.6109 -0.7915 0.0170
vn 0.3856 -0.9221 0.0303
vn -0.3327 -0.4136 0.8475
vn 0.6048 -0.7918 0.0848
vn 0.7519 -0.6583 0.0352
vn 0.3012 -0.9017 0.3103
vn 0.9971 0.0346 0.0675
vn 0.0041 -0.9651 0.2620
vn -0.0038 -0.9847 0.1743
vn 0.3752 -0.9172 -0.1340
vn 0.9966 0.0538 0.0616
vn 0.1637 -0.0858 0.9828
vn -0.6772 -0.5700 0.4653
vn -0.4981 -0.6536 -0.5699
vn 0.4595 -0.2605 -0.8491
vn 0.9363 0.1795 0.3018
vn -0.0143 -0.0544 0.9984
vn -0.8329 -0.5040 0.2284
vn -0.4124 -0.4109 -0.8131
vn 0.6567 0.0608 -0.7517
vn 0.2398 0.8507 0.4677
vn -0.5071 0.5618 0.6536
vn -0.9764 0.1862 -0.1098
vn -0.3607 0.4305 -0.8274
vn 0.5261 0.6597 -0.5367
vn -0.3114 0.8379 -0.4482
vn 0.0540 0.6957 -0.7163
vn 0.0177 0.5958 -0.8029
vn -0.4318 0.7809 -0.4513
vn -0.5109 0.4835 -0.7108
vn -0.7297 0.2359 -0.6418
vn -0.5581 0.8119 -0.1713
vn -0.9498 0.3120 0.0217
vn -0.9505 0.2644 0.1632
vn -0.3051 0.9490 0.0789
vn -0.2619 0.8021 0.5367
vn 0.0052 0.7692 0.6390
vn -0.2594 0.9646 0.0483
vn 0.2150 0.9437 0.2514
vn 0.6430 0.7319 -0.2255
vn 0.6067 0.5581 -0.5661
vn 0.5270 0.3440 -0.7771
vn 0.2388 0.3615 -0.9013
vn -0.3278 0.1067 -0.9387
vn -0.5152 -0.1176 -0.8489
vn -0.6955 -0.0166 -0.7184
vn -0.9977 -0.0214 -0.0646
vn -0.9791 -0.1048 0.1744
vn -0.9711 -0.0513 0.2333
vn -0.4142 0.3034 0.8581
vn -0.1452 0.2756 0.9502
vn 0.0892 0.5742 0.8138
vn 0.4607 0.6994 0.5465
vn 0.7759 0.5711 0.2682
vn 0.7116 0.6734 -0.2002
vn 0.0419 0.0408 -0.9983
vn 0.1651 -0.2441 -0.9556
vn -0.0325 -0.4791 -0.8772
vn -0.8804 -0.2642 -0.3938
vn -0.7141 -0.5990 -0.3624
vn -0.7237 -0.6842 -0.0899
vn -0.6999 -0.1986 0.6861
vn -0.6076 -0.3767 0.6992
vn -0.2238 -0.3886 0.8938
vn 0.3636 0.5188 0.7737
vn 0.4752 0.2932 0.8296
vn 0.9290 0.1476 0.3394
vn 0.7730 0.5115 -0.3754
vn 0.9256 0.1827 -0.3314
vn 0.8607 -0.0128 -0.5090
vn 0.5277 -0.4169 -0.7401
vn 0.2737 -0.6803 -0.6799
vn 0.0426 -0.6683 -0.7427
vn -0.3526 -0.7682 -0.5343
vn -0.3374 -0.9414 -0.0025
vn -0.3910 -0.9184 0.0605
vn -0.3485 -0.8912 0.2905
vn -0.1450 -0.9133 0.3805
vn -0.0358 -0.5769 0.8160
vn 0.8455 -0.2395 -0.4772
vn 0.9081 -0.3106 -0.2808
vn 0.4751 -0.8785 -0.0503
vn 0.2049 -0.4896 0.8475
vn 0.4030 -0.5916 0.6983
vn 0.9487 0.0626 0.3099
vn 0.6751 -0.5871 0.4468
vn 0.9540 -0.2600 0.1494
vn 0.2860 -0.7712 0.5688
vn -0.0771 -0.9970 -0.0083
vn 0.3180 -0.9051 -0.2823
vn 0.9968 0.0801 0.0048
vn 0.4461 -0.0052 0.8950
vn -0.2914 -0.1950 0.9365
vn -0.6312 -0.7174 -0.2949
vn -0.0366 -0.3159 -0.9481
vn 0.9462 0.2545 0.1998
vn 0.0851 0.0935 0.9920
vn -0.8238 -0.2454 0.5110
vn -0.5343 -0.4952 -0.6851
vn 0.3034 0.0220 -0.9526
vn 0.1557 0.9321 0.3271
vn -0.3199 0.6098 0.7251
vn -0.9506 0.1333 -0.2802
vn -0.6490 0.1515 -0.7456
vn 0.0994 0.7801 -0.6177
vn -0.1261 0.9855 -0.1137
vn -0.1245 0.9862 -0.1093
vn -0.1261 0.9855 -0.1138
vn 0.2650 0.7725 -0.5771
vn 0.0559 0.4414 -0.8955
vn -0.5306 0.8449 -0.0675
vn -0.5307 0.8449 -0.0669
vn -0.7894 0.2292 -0.5695
vn -0.8725 0.1067 -0.4768
vn -0.5308 0.8449 -0.0663
vn -0.7816 0.6132 0.1144
vn -0.6981 0.4682 0.5417
vn -0.3342 0.9404 0.0625
vn -0.1977 0.7399 0.6430
vn -0.2131 0.7394 0.6386
vn -0.1279 0.9847 -0.1184
vn 0.0584 0.9959 -0.0695
vn 0.2751 0.9200 -0.2791
vn 0.4951 0.4063 -0.7680
vn 0.2857 0.0555 -0.9567
vn 0.3122 0.0547 -0.9484
vn -0.6272 -0.0978 -0.7727
vn -0.6250 -0.0952 -0.7748
vn -0.6226 -0.0923 -0.7771
vn -0.6274 -0.0979 -0.7726
vn -0.8724 0.0644 -0.4845
vn -0.9637 0.0785 -0.2552
vn -0.8755 -0.0049 0.4832
vn -0.7476 0.2107 0.6298
vn -0.2359 0.3943 0.8882
vn -0.0279 0.3756 0.9263
vn 0.0125 0.4218 0.9066
vn 0.7409 0.4729 0.4768
vn 0.9265 0.3267 0.1869
vn 0.9158 0.3898 -0.0970
vn 0.0717 -0.2611 -0.9627
vn 0.1016 -0.3350 -0.9367
vn -0.1249 -0.5627 -0.8172
vn -0.9314 -0.0414 -0.3615
vn -0.7065 -0.6747 -0.2134
vn -0.6935 -0.7183 -0.0555
vn -0.4316 0.1258 0.8933
vn -0.3017 -0.2166 0.9285
vn -0.1382 -0.2244 0.9646
vn 0.5877 0.2946 0.7536
vn 0.6219 0.1806 0.7620
vn 0.8458 0.0521 0.5309
vn 0.9335 0.2947 -0.2045
vn 0.9748 0.1292 -0.1819
vn 0.9180 -0.1177 -0.3788
vn 0.2408 -0.8223 -0.5157
vn 0.2390 -0.8236 -0.5144
vn 0.2409 -0.8222 -0.5158
vn 0.2389 -0.8237 -0.5143
vn -0.0213 -0.8315 -0.5551
vn -0.4233 -0.8786 -0.2212
vn -0.3988 -0.9124 -0.0918
vn -0.4946 -0.8691 0.0103
vn -0.1102 -0.4954 0.8616
vn -0.0280 -0.4846 0.8743
vn 0.0066 -0.4217 0.9067
vn 0.8463 -0.4918 -0.2047
vn 0.8545 -0.5181 -0.0368
vn 0.7856 -0.6179 0.0316
vn 0.4549 -0.2538 0.8536
vn 0.7238 -0.3771 0.5778
vn 0.8527 -0.2310 0.4685
vn 0.4584 -0.8657 -0.2012
vn 0.9823 -0.1833 0.0382
vn 0.3567 -0.9095 -0.2136
vn 0.3002 -0.8997 -0.3168
vn 0.0956 -0.9812 -0.1673
vn 0.9979 0.0343 -0.0545
vn 0.5438 0.1079 0.8322
vn -0.6993 -0.4350 0.5673
vn -0.6462 -0.6118 -0.4561
vn 0.2503 -0.6246 -0.7397
vn 0.9364 0.2764 0.2161
vn 0.3289 0.1828 0.9265
vn -0.9608 -0.2768 0.0175
vn -0.6151 -0.5554 -0.5596
vn 0.7587 0.0960 -0.6444
vn 0.3221 0.9060 0.2745
vn -0.1280 0.8419 0.5242
vn -0.9291 -0.0302 -0.3686
vn -0.1903 0.5657 -0.8023
vn 0.3299 0.7377 -0.5891
vn -0.1313 0.9151 -0.3813
vn 0.1145 0.7528 -0.6483
vn 0.0543 0.6222 -0.7810
vn -0.0371 0.9219 -0.3856
vn -0.2203 0.5875 -0.7786
vn -0.9020 -0.0394 -0.4299
vn -0.1597 0.9871 0.0107
vn -0.1596 0.9871 0.0107
vn -0.5392 0.8084 0.2360
vn -0.5273 0.7948 0.3006
vn -0.1596 0.9871 0.0108
vn -0.0998 0.8640 0.4934
vn 0.0435 0.8474 0.5292
vn -0.0325 0.9940 -0.1040
vn 0.2572 0.9660 -0.0262
vn 0.4560 0.8564 -0.2422
vn 0.5552 0.4419 -0.7046
vn 0.5553 0.4420 -0.7045
vn 0.5554 0.4422 -0.7043
vn 0.5531 0.4368 -0.7095
vn 0.1747 0.4892 -0.8545
vn -0.2069 0.0649 -0.9762
vn -0.2071 0.0650 -0.9762
vn -0.1951 0.0620 -0.9788
vn -0.6706 -0.4466 -0.5923
vn -0.8181 -0.3730 -0.4376
vn -0.9130 -0.3398 -0.2259
vn -0.9235 -0.3824 0.0296
vn -0.8283 0.1052 0.5503
vn -0.0198 0.5972 0.8018
vn 0.1340 0.5433 0.8288
vn 0.1738 0.5838 0.7930
vn 0.6260 0.6840 0.3746
vn 0.8141 0.5591 0.1573
vn 0.7599 0.6343 -0.1421
vn -0.1948 0.0619 -0.9789
vn 0.0279 -0.6121 -0.7903
vn -0.0832 -0.7221 -0.6868
vn -0.8391 -0.4289 -0.3347
vn -0.7879 -0.5301 -0.3135
vn -0.7876 -0.5242 -0.3240
vn -0.7878 -0.5298 -0.3140
vn -0.7876 -0.5240 -0.3243
vn -0.4567 0.1118 0.8826
vn -0.4051 -0.0156 0.9141
vn 0.2299 -0.0399 0.9724
vn 0.5295 0.4856 0.6956
vn 0.6345 0.2062 0.7449
vn 0.8443 0.0839 0.5292
vn 0.8209 0.3785 -0.4276
vn 0.9223 0.1071 -0.3713
vn 0.9026 0.0431 -0.4284
vn 0.3007 -0.7774 -0.5525
vn 0.0550 -0.9250 -0.3760
vn 0.0556 -0.9250 -0.3758
vn 0.0562 -0.9251 -0.3756
vn -0.0540 -0.9603 -0.2737
vn -0.0868 -0.8978 -0.4317
vn -0.4067 -0.8905 -0.2040
vn -0.3125 -0.9085 0.2775
vn -0.1322 -0.9216 0.3649
vn 0.2123 -0.0190 0.9770
vn 0.8911 -0.4031 -0.2086
vn 0.8931 -0.4058 -0.1942
vn 0.4528 -0.8912 0.0266
vn 0.5577 0.0644 0.8275
vn 0.8686 -0.1399 0.4753
vn 0.8647 -0.1449 0.4809
vn 0.8685 -0.1401 0.4755
vn 0.8641 -0.1457 0.4818
# 345 vertex normals

o Icosphere
g Icosphere
f 1//1 2//1 3//1 
f 4//2 2//2 5//2 
f 1//3 3//3 6//3 
f 1//4 6//4 7//4 
f 1//5 7//5 8//5 
f 4//6 5//6 9//6 
f 10//7 11//7 12//7 
f 13//8 14//8 15//8 
f 16//9 17//9 18//9 
f 19//10 20//10 21//10 
f 4//11 9//12 22//13 
f 10//14 12//14 23//14 
f 13//15 15//15 24//15 
f 16//16 18//16 25//16 
f 19//17 21//17 26//17 
f 27//18 28//18 29//18 
f 30//19 31//19 32//19 
f 33//20 34//20 35//20 
f 36//21 37//22 38//23 
f 39//24 40//24 41//24 
f 41//25 38//25 42//25 
f 41//26 40//26 38//26 
f 40//27 36//27 38//27 
f 38//28 35//28 42//28 
f 38//29 37//29 35//29 
f 37//30 33//30 35//30 
f 35//31 32//31 42//31 
f 35//32 34//32 32//32 
f 34//33 30//33 32//33 
f 32//34 29//34 42//34 
f 32//35 31//35 29//35 
f 31//36 27//36 29//36 
f 29//37 41//37 42//37 
f 29//38 28//38 41//38 
f 28//39 39//39 41//39 
f 26//40 40//40 39//40 
f 26//41 21//41 40//41 
f 21//42 36//42 40//42 
f 25//43 37//22 36//21 
f 25//44 18//44 37//44 
f 18//45 33//45 37//45 
f 24//46 34//46 33//46 
f 24//47 15//47 34//47 
f 15//48 30//48 34//48 
f 23//49 31//49 30//49 
f 23//50 12//50 31//50 
f 12//51 27//51 31//51 
f 22//52 28//52 27//52 
f 22//53 9//53 28//53 
f 9//54 39//54 28//54 
f 21//55 25//55 36//55 
f 21//56 20//56 25//56 
f 20//57 16//57 25//57 
f 18//58 24//58 33//58 
f 18//59 17//59 24//59 
f 17//60 13//60 24//60 
f 15//61 23//61 30//61 
f 15//62 14//62 23//62 
f 14//63 10//63 23//63 
f 12//64 22//64 27//64 
f 12//65 11//65 22//65 
f 11//66 4//11 22//13 
f 9//67 26//67 39//67 
f 9//68 5//69 26//70 
f 5//69 19//71 26//70 
f 8//72 20//72 19//72 
f 8//73 7//73 20//73 
f 7//74 16//74 20//74 
f 7//75 17//75 16//75 
f 7//76 6//76 17//76 
f 6//77 13//77 17//77 
f 6//78 14//79 13//80 
f 6//78 3//81 14//79 
f 3//82 10//82 14//82 
f 5//83 8//83 19//83 
f 5//84 2//84 8//84 
f 2//85 1//85 8//85 
f 3//86 11//86 10//86 
f 3//87 2//87 11//87 
f 2//88 4//88 11//88 
f 43//89 44//89 45//89 
f 46//90 44//90 47//90 
f 43//91 45//91 48//91 
f 43//92 48//92 49//92 
f 43//93 49//93 50//93 
f 46//94 47//94 51//94 
f 52//95 53//95 54//95 
f 55//96 56//96 57//96 
f 58//97 59//97 60//97 
f 61//98 62//98 63//98 
f 46//99 51//99 64//99 
f 52//100 54//100 65//100 
f 55//101 57//101 66//101 
f 58//102 60//102 67//102 
f 61//103 63//103 68//103 
f 69//104 70//104 71//104 
f 72//105 73//105 74//105 
f 75//106 76//106 77//106 
f 78//107 79//107 80//107 
f 81//108 82//108 83//108 
f 83//109 80//109 84//109 
f 83//110 82//110 80//110 
f 82//111 78//111 80//111 
f 80//112 77//112 84//112 
f 80//113 79//113 77//113 
f 79//114 75//114 77//114 
f 77//115 74//115 84//115 
f 77//116 76//116 74//116 
f 76//117 72//117 74//117 
f 74//118 71//118 84//118 
f 74//119 73//119 71//119 
f 73//120 69//120 71//120 
f 71//121 83//121 84//121 
f 71//122 70//122 83//122 
f 70//123 81//123 83//123 
f 68//124 82//124 81//124 
f 68//125 63//125 82//125 
f 63//126 78//126 82//126 
f 67//127 79//127 78//127 
f 67//128 60//128 79//128 
f 60//129 75//129 79//129 
f 66//130 76//130 75//130 
f 66//131 57//131 76//131 
f 57//132 72//132 76//132 
f 65//133 73//133 72//133 
f 65//134 54//134 73//134 
f 54//135 69//135 73//135 
f 64//136 70//136 69//136 
f 64//137 51//137 70//137 
f 51//138 81//138 70//138 
f 63//139 67//139 78//139 
f 63//140 62//140 67//140 
f 62//141 58//141 67//141 
f 60//142 66//142 75//142 
f 60//143 59//143 66//143 
f 59//144 55//144 66//144 
f 57//145 65//145 72//145 
f 57//146 56//146 65//146 
f 56//147 52//147 65//147 
f 54//148 64//148 69//148 
f 54//149 53//149 64//149 
f 53//150 46//150 64//150 
f 51//151 68//151 81//151 
f 51//152 47//152 68//152 
f 47//153 61//153 68//153 
f 50//154 62//154 61//154 
f 50//155 49//155 62//155 
f 49//156 58//156 62//156 
f 49//157 59//157 58//157 
f 49//158 48//158 59//158 
f 48//159 55//159 59//159 
f 48//160 56//160 55//160 
f 48//161 45//161 56//161 
f 45//162 52//162 56//162 
f 47//163 50//163 61//163 
f 47//164 44//164 50//164 
f 44//165 43//165 50//165 
f 45//166 53//166 52//166 
f 45//167 44//167 53//167 
f 44//168 46//168 53//168 
f 85//169 86//169 87//169 
f 88//170 86//170 89//170 
f 85//171 87//171 90//171 
f 85//172 90//172 91//172 
f 85//173 91//173 92//173 
f 88//174 89//174 93//174 
f 94//175 95//175 96//175 
f 97//176 98//176 99//176 
f 100//177 101//177 102//177 
f 103//178 104//178 105//178 
f 88//179 93//179 106//179 
f 94//180 96//180 107//180 
f 97//181 99//181 108//181 
f 100//182 102//182 109//182 
f 103//183 105//183 110//183 
f 111//184 112//184 113//184 
f 114//185 115//185 116//185 
f 117//186 118//186 119//186 
f 120//187 121//187 122//187 
f 123//188 124//188 125//188 
f 125//189 122//190 126//191 
f 125//192 124//192 122//192 
f 124//193 120//193 122//193 
f 122//194 119//195 126//195 
f 122//196 121//196 119//196 
f 121//197 117//197 119//197 
f 119//195 116//198 126//195 
f 119//199 118//199 116//199 
f 118//200 114//200 116//200 
f 116//201 113//201 126//201 
f 116//202 115//202 113//202 
f 115//203 111//203 113//203 
f 113//204 125//189 126//191 
f 113//205 112//205 125//205 
f 112//206 123//206 125//206 
f 110//207 124//207 123//207 
f 110//208 105//208 124//208 
f 105//209 120//209 124//209 
f 109//210 121//211 120//212 
f 109//210 102//213 121//211 
f 102//214 117//214 121//214 
f 108//215 118//215 117//215 
f 108//216 99//216 118//216 
f 99//217 114//217 118//217 
f 107//218 115//218 114//218 
f 107//219 96//219 115//219 
f 96//220 111//220 115//220 
f 106//221 112//221 111//221 
f 106//222 93//222 112//222 
f 93//223 123//223 112//223 
f 105//224 109//224 120//224 
f 105//225 104//225 109//225 
f 104//226 100//226 109//226 
f 102//227 108//227 117//227 
f 102//228 101//228 108//228 
f 101//229 97//229 108//229 
f 99//230 107//230 114//230 
f 99//231 98//231 107//231 
f 98//232 94//232 107//232 
f 96//233 106//233 111//233 
f 96//234 95//234 106//234 
f 95//235 88//235 106//235 
f 93//236 110//236 123//236 
f 93//237 89//237 110//237 
f 89//238 103//238 110//238 
f 92//239 104//240 103//241 
f 92//239 91//242 104//240 
f 91//243 100//243 104//243 
f 91//244 101//244 100//244 
f 91//245 90//245 101//245 
f 90//246 97//246 101//246 
f 90//247 98//247 97//247 
f 90//248 87//248 98//248 
f 87//249 94//249 98//249 
f 89//250 92//250 103//250 
f 89//251 86//251 92//251 
f 86//252 85//252 92//252 
f 87//253 95//253 94//253 
f 87//254 86//254 95//254 
f 86//255 88//255 95//255 
f 127//256 128//256 129//256 
f 130//257 128//257 131//257 
f 127//258 129//258 132//258 
f 127//259 132//259 133//259 
f 127//260 133//260 134//260 
f 130//261 131//261 135//261 
f 136//262 137//262 138//262 
f 139//263 140//263 141//263 
f 142//264 143//264 144//264 
f 145//265 146//265 147//265 
f 130//266 135//266 148//266 
f 136//267 138//267 149//267 
f 139//268 141//268 150//268 
f 142//269 144//269 151//269 
f 145//270 147//270 152//270 
f 153//271 154//271 155//271 
f 156//272 157//272 158//272 
f 159//273 160//273 161//273 
f 162//274 163//274 164//274 
f 165//275 166//275 167//275 
f 167//276 164//276 168//276 
f 167//277 166//277 164//277 
f 166//278 162//278 164//278 
f 164//279 161//279 168//279 
f 164//280 163//280 161//280 
f 163//281 159//281 161//281 
f 161//282 158//283 168//283 
f 161//284 160//284 158//284 
f 160//285 156//285 158//285 
f 158//283 155//286 168//283 
f 158//287 157//287 155//287 
f 157//288 153//288 155//288 
f 155//289 167//289 168//289 
f 155//290 154//290 167//290 
f 154//291 165//291 167//291 
f 152//292 166//293 165//294 
f 152//292 147//295 166//293 
f 147//296 162//296 166//296 
f 151//297 163//298 162//299 
f 151//300 144//300 163//300 
f 144//301 159//301 163//301 
f 150//302 160//302 159//302 
f 150//303 141//303 160//303 
f 141//304 156//304 160//304 
f 149//305 157//305 156//305 
f 149//306 138//306 157//306 
f 138//307 153//307 157//307 
f 148//308 154//308 153//308 
f 148//309 135//309 154//309 
f 135//310 165//310 154//310 
f 147//311 151//297 162//299 
f 147//312 146//312 151//312 
f 146//313 142//313 151//313 
f 144//314 150//314 159//314 
f 144//315 143//316 150//317 
f 143//316 139//318 150//317 
f 141//319 149//319 156//319 
f 141//320 140//320 149//320 
f 140//321 136//321 149//321 
f 138//322 148//322 153//322 
f 138//323 137//323 148//323 
f 137//324 130//324 148//324 
f 135//325 152//325 165//325 
f 135//326 131//326 152//326 
f 131//327 145//327 152//327 
f 134//328 146//328 145//328 
f 134//329 133//330 146//330 
f 133//330 142//331 146//330 
f 133//332 143//332 142//332 
f 133//333 132//333 143//333 
f 132//334 139//334 143//334 
f 132//335 140//335 139//335 
f 132//336 129//336 140//336 
f 129//337 136//337 140//337 
f 131//338 134//338 145//338 
f 131//339 128//339 134//339 
f 128//340 127//340 134//340 
f 129//341 137//341 136//341 
f 129//342 128//343 137//344 
f 128//343 130//345 137//344 
# 320 faces

